<svg t="1585914560822" class="icon" viewBox="0 0 1024 1024" version="1.1" xmlns="http://www.w3.org/2000/svg" p-id="2224" width="48" height="48"><path d="M896 256l-192 0 0-128c0-35.20512-28.79488-64-64-64l-256 0c-35.20512 0-64 28.79488-64 64l0 128-192 0c-70.41024 0-128 57.61024-128 128l0 512c0 70.41024 57.61024 128 128 128l768 0c70.41024 0 128-57.61024 128-128l0-512c0-70.38976-57.61024-128-128-128zM384 128l256 0 0 128-256 0 0-128zM768 704l-192 0 0 192-128 0 0-192-192 0 0-128 192 0 0-192 128 0 0 192 192 0 0 128z" p-id="2225" fill="#1296db"></path></svg>